<?xml version="1.0" encoding="UTF-8" standalone="no"?>
<svg width="139px" height="124px" viewBox="0 0 139 124" version="1.1" xmlns="http://www.w3.org/2000/svg" xmlns:xlink="http://www.w3.org/1999/xlink" xmlns:sketch="http://www.bohemiancoding.com/sketch/ns">
    <!-- Generator: Sketch 3.5.2 (25235) - http://www.bohemiancoding.com/sketch -->
    <title>icon_pc</title>
    <desc>Created with Sketch.</desc>
    <defs></defs>
    <g id="Welcome" stroke="none" stroke-width="1" fill="none" fill-rule="evenodd" sketch:type="MSPage">
        <g id="Desktop-HD" sketch:type="MSArtboardGroup" transform="translate(-500.000000, -1117.000000)">
            <g id="What-we-will-learn" sketch:type="MSLayerGroup" transform="translate(393.000000, 1053.000000)">
                <g id="Valid-html5" sketch:type="MSShapeGroup">
                    <g id="Computer-Icon" transform="translate(58.000000, 0.000000)">
                        <g id="icon_pc" transform="translate(48.647003, 64.647003)">
                            <path d="M138.627536,94.4986233 C138.627536,97.9652793 135.817084,100.77789 132.348269,100.77789 L6.75862062,100.77789 C3.28980611,100.77789 0.47935404,97.9652793 0.47935404,94.4986233 L0.47935404,6.58457413 C0.47935404,3.11791819 3.28980611,0.30530755 6.75862062,0.30530755 L132.348269,0.30530755 C135.817084,0.30530755 138.627536,3.11791819 138.627536,6.58457413 L138.627536,94.4986233 Z" id="Fill-851" fill="#4A140F"></path>
                            <path d="M88.3916764,116.868915 L50.7139184,116.868915 L50.7139184,100.778969 L88.3916764,100.778969 L88.3916764,116.868915 Z" id="Fill-852" fill="#FFEFEE"></path>
                            <path d="M100.950641,120.009412 C100.950641,121.74274 99.5454152,123.147966 97.8099287,123.147966 L41.2965295,123.147966 C39.5632015,123.147966 38.1558169,121.74274 38.1558169,120.009412 C38.1558169,118.273925 39.5632015,116.868699 41.2965295,116.868699 L97.8099287,116.868699 C99.5454152,116.868699 100.950641,118.273925 100.950641,120.009412" id="Fill-853" fill="#FFFFFF"></path>
                            <path d="M138.627536,94.4986233 L138.627536,75.658665 L0.47935404,75.658665 L0.47935404,94.4986233 C0.47935404,97.9652793 3.29196468,100.77789 6.75862062,100.77789 L132.348269,100.77789 C135.814925,100.77789 138.627536,97.9652793 138.627536,94.4986233" id="Fill-854" fill="#FFFFFF"></path>
                            <path d="M69.5534449,84.4910827 C67.2804756,84.4910827 65.4327437,86.3388146 65.4327437,88.6117839 C65.4327437,90.8825947 67.2804756,92.7324852 69.5534449,92.7324852 C71.8264143,92.7324852 73.6741462,90.8825947 73.6741462,88.6117839 C73.6741462,86.3388146 71.8264143,84.4910827 69.5534449,84.4910827 M69.5534449,97.0496159 C64.9017366,97.0496159 61.115613,93.2634922 61.115613,88.6117839 C61.115613,83.9579171 64.9017366,80.173952 69.5534449,80.173952 C74.2051533,80.173952 77.9912769,83.9579171 77.9912769,88.6117839 C77.9912769,93.2634922 74.2051533,97.0496159 69.5534449,97.0496159" id="Fill-855" fill="#FFD8D4"></path>
                            <path d="M0.47935404,6.58565341 L0.47935404,75.6597443 L43.0548968,75.6597443 L118.408254,0.306386832 L6.75862062,0.306386832 C3.29196468,0.306386832 0.47935404,3.11899747 0.47935404,6.58565341" id="Fill-856" fill="#7D261E"></path>
                        </g>
                    </g>
                </g>
            </g>
        </g>
    </g>
</svg>