<?xml version="1.0" encoding="UTF-8" standalone="no"?>
<svg width="139px" height="140px" viewBox="0 0 139 140" version="1.1" xmlns="http://www.w3.org/2000/svg" xmlns:xlink="http://www.w3.org/1999/xlink" xmlns:sketch="http://www.bohemiancoding.com/sketch/ns">
    <!-- Generator: Sketch 3.5.2 (25235) - http://www.bohemiancoding.com/sketch -->
    <title>icon_tasks</title>
    <desc>Created with Sketch.</desc>
    <defs></defs>
    <g id="Welcome" stroke="none" stroke-width="1" fill="none" fill-rule="evenodd" sketch:type="MSPage">
        <g id="Desktop-HD" sketch:type="MSArtboardGroup" transform="translate(-1281.000000, -1102.000000)">
            <g id="What-we-will-learn" sketch:type="MSLayerGroup" transform="translate(393.000000, 1053.000000)">
                <g id="Responsive" transform="translate(781.000000, 0.000000)" sketch:type="MSShapeGroup">
                    <g id="Responsive-Icon" transform="translate(58.000000, 0.000000)">
                        <g id="icon_tasks" transform="translate(49.763636, 49.763636)">
                            <path d="M-0.521869091,8.30901273 C-0.521869091,3.71994 3.19742182,0.000649090909 7.78649455,0.000649090909 L68.7144945,0.000649090909 L103.332676,29.0799218 L103.332676,130.165013 C103.332676,134.751922 99.6133855,138.473376 95.0243127,138.473376 L7.78649455,138.473376 C3.19742182,138.473376 -0.521869091,134.751922 -0.521869091,130.165013 L-0.521869091,8.30901273 Z" id="Fill-330" fill="#FFFFFF"></path>
                            <path d="M68.7144945,0 L68.7144945,20.7709091 C68.7144945,25.3599818 72.4337855,29.0792727 77.0228582,29.0792727 L103.332676,29.0792727 L68.7144945,0 Z" id="Fill-331" fill="#FFD8D4"></path>
                            <path d="M116.314495,40.0272727 L127.132676,17.3090909 L137.950858,40.0272727 L137.950858,123.327273 L116.314495,123.327273 L116.314495,40.0272727 Z" id="Fill-332" fill="#FFFFFF"></path>
                            <path d="M137.950858,51.9272727 L137.950858,40.0272727 L127.132676,17.3090909 L127.132676,51.9272727 L137.950858,51.9272727 Z" id="Fill-333" fill="#FFEFEE"></path>
                            <path d="M137.950858,131.981818 C137.950858,135.566964 135.045095,138.472727 131.459949,138.472727 L122.805404,138.472727 C119.220258,138.472727 116.314495,135.566964 116.314495,131.981818 L116.314495,127.654545 L137.950858,127.654545 L137.950858,131.981818 Z" id="Fill-334" fill="#FFEFEE"></path>
                            <path d="M83.8599491,47.6 C83.8599491,48.79 82.8863127,49.7636364 81.6963127,49.7636364 L49.2417673,49.7636364 C48.0517673,49.7636364 47.0781309,48.79 47.0781309,47.6 C47.0781309,46.41 48.0517673,45.4363636 49.2417673,45.4363636 L81.6963127,45.4363636 C82.8863127,45.4363636 83.8599491,46.41 83.8599491,47.6" id="Fill-335" fill="#FFD8D4"></path>
                            <path d="M70.8781309,58.4181818 C70.8781309,59.6081818 69.9044945,60.5818182 68.7144945,60.5818182 L49.2417673,60.5818182 C48.0517673,60.5818182 47.0781309,59.6081818 47.0781309,58.4181818 C47.0781309,57.2281818 48.0517673,56.2545455 49.2417673,56.2545455 L68.7144945,56.2545455 C69.9044945,56.2545455 70.8781309,57.2281818 70.8781309,58.4181818" id="Fill-336" fill="#FFD8D4"></path>
                            <path d="M83.8599491,75.7272727 C83.8599491,76.9172727 82.8863127,77.8909091 81.6963127,77.8909091 L49.2417673,77.8909091 C48.0517673,77.8909091 47.0781309,76.9172727 47.0781309,75.7272727 C47.0781309,74.5372727 48.0517673,73.5636364 49.2417673,73.5636364 L81.6963127,73.5636364 C82.8863127,73.5636364 83.8599491,74.5372727 83.8599491,75.7272727" id="Fill-337" fill="#FFD8D4"></path>
                            <path d="M70.8781309,86.5454545 C70.8781309,87.7354545 69.9044945,88.7090909 68.7144945,88.7090909 L49.2417673,88.7090909 C48.0517673,88.7090909 47.0781309,87.7354545 47.0781309,86.5454545 C47.0781309,85.3554545 48.0517673,84.3818182 49.2417673,84.3818182 L68.7144945,84.3818182 C69.9044945,84.3818182 70.8781309,85.3554545 70.8781309,86.5454545" id="Fill-338" fill="#FFD8D4"></path>
                            <path d="M83.8599491,103.854545 C83.8599491,105.044545 82.8863127,106.018182 81.6963127,106.018182 L49.2417673,106.018182 C48.0517673,106.018182 47.0781309,105.044545 47.0781309,103.854545 C47.0781309,102.664545 48.0517673,101.690909 49.2417673,101.690909 L81.6963127,101.690909 C82.8863127,101.690909 83.8599491,102.664545 83.8599491,103.854545" id="Fill-339" fill="#FFD8D4"></path>
                            <path d="M70.8781309,114.672727 C70.8781309,115.862727 69.9044945,116.836364 68.7144945,116.836364 L49.2417673,116.836364 C48.0517673,116.836364 47.0781309,115.862727 47.0781309,114.672727 C47.0781309,113.482727 48.0517673,112.509091 49.2417673,112.509091 L68.7144945,112.509091 C69.9044945,112.509091 70.8781309,113.482727 70.8781309,114.672727" id="Fill-340" fill="#FFD8D4"></path>
                            <path d="M25.5875964,62.7454545 L17.4220327,54.5798909 C16.5760509,53.7339091 16.5760509,52.3643273 17.4220327,51.5205091 C18.2658509,50.6745273 19.6354327,50.6745273 20.4814145,51.5205091 L25.2976691,56.3346 L34.5991418,45.1724 C35.3629055,44.2550182 36.72816,44.1316909 37.6455418,44.8954545 C38.5629236,45.6613818 38.6862509,47.0244727 37.9224873,47.9440182 L25.5875964,62.7454545 Z" id="Fill-341" fill="#E64B44"></path>
                            <path d="M25.5875964,90.8727273 L17.4220327,82.7071636 C16.5760509,81.8611818 16.5760509,80.4916 17.4220327,79.6477818 C18.2658509,78.8018 19.6354327,78.8018 20.4814145,79.6477818 L25.2976691,84.4618727 L34.5991418,73.2996727 C35.3629055,72.3822909 36.72816,72.2589636 37.6455418,73.0227273 C38.5629236,73.7886545 38.6862509,75.1517455 37.9224873,76.0712909 L25.5875964,90.8727273 Z" id="Fill-342" fill="#E64B44"></path>
                            <path d="M25.5875964,119 L17.4220327,110.834436 C16.5760509,109.988455 16.5760509,108.618873 17.4220327,107.775055 C18.2658509,106.929073 19.6354327,106.929073 20.4814145,107.775055 L25.2976691,112.589145 L34.5991418,101.426945 C35.3629055,100.509564 36.72816,100.386236 37.6455418,101.15 C38.5629236,101.915927 38.6862509,103.279018 37.9224873,104.198564 L25.5875964,119 Z" id="Fill-343" fill="#E64B44"></path>
                            <path d="M137.951291,127.654545 L116.314927,127.654545 L116.314927,121.163636 L137.951291,121.163636 L137.951291,127.654545 Z" id="Fill-344" fill="#7D261E"></path>
                            <path d="M127.133109,127.654545 L116.314927,127.654545 L116.314927,123.327273 L127.133109,123.327273 L127.133109,127.654545 Z" id="Fill-345" fill="#B84D44"></path>
                            <path d="M127.161236,17.2753382 L123.143364,25.7113564 C124.251145,27.1783018 125.635873,28.09352 127.161236,28.09352 C128.6866,28.09352 130.071327,27.1783018 131.179109,25.7113564 L127.161236,17.2753382 Z" id="Fill-346" fill="#4A140F"></path>
                            <path d="M132.541767,43.2727273 C130.044931,43.2727273 127.94404,41.5807636 127.318749,39.2808182 C127.262495,39.0709455 127.002858,39.0709455 126.946604,39.2808182 C126.321313,41.5807636 124.220422,43.2727273 121.723585,43.2727273 C119.44744,43.2727273 117.498004,41.8663636 116.699622,39.8758182 C116.61524,39.6637818 116.314495,39.7222 116.314495,39.9493818 L116.314495,123.327273 L137.950858,123.327273 L137.950858,39.9493818 C137.950858,39.7222 137.650113,39.6637818 137.565731,39.8758182 C136.767349,41.8663636 134.817913,43.2727273 132.541767,43.2727273" id="Fill-347" fill="#C23023"></path>
                            <path d="M116.314495,123.327273 L116.314495,40.0142909 C116.314495,39.7719636 116.630385,39.7113818 116.725585,39.9342364 C117.536949,41.8944909 119.469076,43.2727273 121.723585,43.2727273 C124.23124,43.2727273 126.340785,41.5656182 126.953095,39.2526909 C126.983385,39.1380182 127.132676,39.1531636 127.132676,39.2678364 L127.132676,123.327273 L116.314495,123.327273 Z" id="Fill-348" fill="#E64B44"></path>
                            <path d="M116.314495,127.654545 L116.314495,131.981818 C116.314495,135.566964 119.220258,138.472727 122.805404,138.472727 L127.132676,138.472727 L127.132676,127.654545 L116.314495,127.654545 Z" id="Fill-349" fill="#FFFFFF"></path>
                        </g>
                    </g>
                </g>
            </g>
        </g>
    </g>
</svg>