<?xml version="1.0" encoding="UTF-8" standalone="no"?>
<svg width="139px" height="140px" viewBox="0 0 139 140" version="1.1" xmlns="http://www.w3.org/2000/svg" xmlns:xlink="http://www.w3.org/1999/xlink" xmlns:sketch="http://www.bohemiancoding.com/sketch/ns">
    <!-- Generator: Sketch 3.5.2 (25235) - http://www.bohemiancoding.com/sketch -->
    <title>icon_chart</title>
    <desc>Created with Sketch.</desc>
    <defs></defs>
    <g id="Welcome" stroke="none" stroke-width="1" fill="none" fill-rule="evenodd" sketch:type="MSPage">
        <g id="Desktop-HD" sketch:type="MSArtboardGroup" transform="translate(-890.000000, -1102.000000)">
            <g id="What-we-will-learn" sketch:type="MSLayerGroup" transform="translate(393.000000, 1053.000000)">
                <g id="Customizable" transform="translate(390.000000, 0.000000)" sketch:type="MSShapeGroup">
                    <g id="Customize-icon" transform="translate(58.000000, 0.000000)">
                        <g id="icon_chart" transform="translate(48.763636, 49.763636)">
                            <path d="M138.950858,12.9818182 L138.950858,125.490909 C138.950858,132.652545 133.130676,138.472727 125.96904,138.472727 L13.4599491,138.472727 C6.29831273,138.472727 0.478130909,132.652545 0.478130909,125.490909 L0.478130909,12.9818182 C0.478130909,5.82018182 6.29831273,0 13.4599491,0 L125.96904,0 C133.130676,0 138.950858,5.82018182 138.950858,12.9818182" id="Fill-720" fill="#E64B44"></path>
                            <path d="M138.950858,19.3638964 L138.950858,125.49026 C138.950858,132.651896 133.130676,138.472078 125.96904,138.472078 L13.4599491,138.472078 C6.29831273,138.472078 0.478130909,132.651896 0.478130909,125.49026 L0.478130909,95.7618964 L24.7324945,80.1620782 L61.5359491,86.6529873 L95.1372218,64.2593509 L114.523404,29.8358964 L138.950858,19.3638964 Z" id="Fill-721" fill="#C23023"></path>
                            <path d="M119.478564,67.0727273 L106.496745,67.0727273 L106.496745,54.0909091 L119.478564,54.0909091 L119.478564,67.0727273 Z M119.478564,84.3818182 L106.496745,84.3818182 L106.496745,71.4 L119.478564,71.4 L119.478564,84.3818182 Z M119.478564,101.690909 L106.496745,101.690909 L106.496745,88.7090909 L119.478564,88.7090909 L119.478564,101.690909 Z M119.478564,119 L106.496745,119 L106.496745,106.018182 L119.478564,106.018182 L119.478564,119 Z M89.1876545,106.018182 L102.169473,106.018182 L102.169473,119 L89.1876545,119 L89.1876545,106.018182 Z M71.8785636,106.018182 L84.8603818,106.018182 L84.8603818,119 L71.8785636,119 L71.8785636,106.018182 Z M54.5694727,106.018182 L67.5512909,106.018182 L67.5512909,119 L54.5694727,119 L54.5694727,106.018182 Z M37.2603818,106.018182 L50.2422,106.018182 L50.2422,119 L37.2603818,119 L37.2603818,106.018182 Z M19.9491273,106.018182 L32.9331091,106.018182 L32.9331091,119 L19.9491273,119 L19.9491273,106.018182 Z M19.9491273,88.7090909 L32.9331091,88.7090909 L32.9331091,101.690909 L19.9491273,101.690909 L19.9491273,88.7090909 Z M50.2422,101.690909 L37.2603818,101.690909 L37.2603818,88.7090909 L50.2422,88.7090909 L50.2422,101.690909 Z M67.5512909,101.690909 L54.5694727,101.690909 L54.5694727,88.7090909 L67.5512909,88.7090909 L67.5512909,101.690909 Z M84.8603818,101.690909 L71.8785636,101.690909 L71.8785636,88.7090909 L84.8603818,88.7090909 L84.8603818,101.690909 Z M102.169473,101.690909 L89.1876545,101.690909 L89.1876545,88.7090909 L102.169473,88.7090909 L102.169473,101.690909 Z M89.1876545,71.4 L102.169473,71.4 L102.169473,84.3818182 L89.1876545,84.3818182 L89.1876545,71.4 Z M138.951291,36.7818182 L138.951291,32.4545455 L123.805836,32.4545455 L123.805836,23.8 L119.478564,23.8 L119.478564,32.4545455 L108.660382,32.4545455 L108.660382,36.7818182 L119.478564,36.7818182 L119.478564,49.7636364 L106.496745,49.7636364 L106.496745,43.2727273 L102.169473,43.2727273 L102.169473,49.7636364 L100.005836,49.7636364 L100.005836,54.0909091 L102.169473,54.0909091 L102.169473,67.0727273 L89.1876545,67.0727273 L84.8603818,67.0727273 L84.8603818,71.4 L84.8603818,84.3818182 L71.8785636,84.3818182 L71.8785636,80.0545455 L67.5512909,80.0545455 L67.5512909,84.3818182 L54.5694727,84.3818182 L54.5694727,82.2160182 L50.2422,82.2160182 L50.2422,84.3818182 L37.2603818,84.3818182 L37.2603818,80.0545455 L32.9331091,80.0545455 L32.9331091,84.3818182 L19.9491273,84.3818182 L19.9491273,82.2160182 L15.6218545,82.2160182 L15.6218545,84.3818182 L10.8207455,84.3818182 L10.8207455,88.7090909 L15.6218545,88.7090909 L15.6218545,101.690909 L0.478563636,101.690909 L0.478563636,106.018182 L15.6218545,106.018182 L15.6218545,119 L0.478563636,119 L0.478563636,123.327273 L15.6218545,123.327273 L15.6218545,138.470564 L19.9491273,138.470564 L19.9491273,123.327273 L32.9331091,123.327273 L32.9331091,138.472727 L37.2603818,138.472727 L37.2603818,123.327273 L50.2422,123.327273 L50.2422,138.470564 L54.5694727,138.470564 L54.5694727,123.327273 L67.5512909,123.327273 L67.5512909,138.472727 L71.8785636,138.472727 L71.8785636,123.327273 L84.8603818,123.327273 L84.8603818,138.472727 L89.1876545,138.472727 L89.1876545,123.327273 L102.169473,123.327273 L102.169473,138.472727 L106.496745,138.472727 L106.496745,123.327273 L119.478564,123.327273 L119.478564,138.472727 L123.805836,138.472727 L123.805836,123.327273 L138.951291,123.327273 L138.951291,119 L123.805836,119 L123.805836,106.018182 L138.951291,106.018182 L138.951291,101.690909 L123.805836,101.690909 L123.805836,88.7090909 L138.951291,88.7090909 L138.951291,84.3818182 L123.805836,84.3818182 L123.805836,71.4 L138.951291,71.4 L138.951291,67.0727273 L123.805836,67.0727273 L123.805836,54.0909091 L138.951291,54.0909091 L138.951291,49.7636364 L123.805836,49.7636364 L123.805836,36.7818182 L138.951291,36.7818182 Z" id="Fill-722" fill="#FF6C5E"></path>
                            <path d="M138.950858,14.6478182 L115.892985,24.5161636 C110.107422,21.5952545 104.129295,28.0407273 107.424513,33.5861273 L94.62444,56.3648909 C89.9985855,55.5643455 86.08024,59.7293455 87.2421127,64.3314 L64.9393491,79.2042364 C63.8553673,78.3907091 62.5204036,77.8909091 61.0599491,77.8909091 C58.6366764,77.8909091 56.5487673,79.2345273 55.4344945,81.1991091 L30.6608582,76.8264 C29.1917491,67.9663091 15.9632764,70.8223091 17.9732945,79.3751636 L0.478130909,90.6130909 L0.478130909,95.7625455 L20.3186764,83.0014182 C23.5273491,85.4917636 27.9736218,84.4726909 29.9035855,81.0736182 L54.6772218,85.4441636 C55.1856764,88.5208545 57.8382945,90.8727273 61.0599491,90.8727273 C65.1535491,90.8727273 68.4119855,87.0517455 67.3301673,82.7915455 L89.6394218,67.9230364 C95.8122764,72.5532182 103.480204,64.3249091 98.38484,58.4939091 L110.834404,36.3880364 C116.161276,38.2704 121.033785,33.0214182 119.012949,27.9109091 L138.950858,19.3645455 L138.950858,14.6478182 Z" id="Fill-723" fill="#FFFFFF"></path>
                            <path d="M78.36904,54.0909091 L61.0599491,67.0727273 L43.7508582,54.0909091 L43.7508582,15.1454545 L78.36904,15.1454545 L78.36904,54.0909091 Z" id="Fill-724" fill="#FFFFFF"></path>
                            <path d="M62.6783491,40.50522 L62.6783491,45.0661655 C64.2210218,44.8389836 65.0085855,44.1163291 65.0085855,42.9349836 C65.0085855,41.8510018 64.4503673,41.1305109 62.6783491,40.50522 M59.5930036,34.7629291 L59.5930036,30.3318018 C58.02004,30.5633109 57.32984,31.3508745 57.32984,32.4002382 C57.32984,33.4171473 57.7885309,34.1073473 59.5930036,34.7629291 M61.1356764,24.13082 C62.0876764,24.13082 62.8427855,24.8859291 62.8427855,25.8379291 L62.8427855,26.29662 C64.6148036,26.55842 66.1899309,27.0841836 67.6006218,27.8717473 C68.2237491,28.2330745 68.7819673,28.8562018 68.7819673,29.8406564 C68.7819673,31.0869109 67.7975127,32.0389109 66.5512582,32.0389109 C66.1574764,32.0389109 65.7636945,31.9415473 65.4023673,31.7446564 C64.4828218,31.2513473 63.56544,30.8575655 62.6783491,30.62822 L62.6783491,35.6154018 C67.6676945,36.9633473 69.80104,38.9971655 69.80104,42.6731836 C69.80104,46.3470382 66.9774945,48.7097291 62.8427855,49.16842 L62.8427855,50.9079836 C62.8427855,51.8599836 62.0876764,52.6150927 61.1356764,52.6150927 C60.18584,52.6150927 59.4307309,51.8599836 59.4307309,50.9079836 L59.4307309,49.1359655 C57.1004945,48.8417109 54.9000764,48.0216927 52.9657855,46.8381836 C52.2755855,46.4141109 51.8493491,45.7563655 51.8493491,44.8714382 C51.8493491,43.5905655 52.8338036,42.6385655 54.1146764,42.6385655 C54.5387491,42.6385655 54.9996036,42.8030018 55.3933855,43.0648018 C56.7716218,43.9518927 58.0849491,44.57502 59.5930036,44.9038927 L59.5930036,39.6852018 C54.8697855,38.4043291 52.5373855,36.60202 52.5373855,32.6966564 C52.5373855,29.0855473 55.2938582,26.6579473 59.4307309,26.2295473 L59.4307309,25.8379291 C59.4307309,24.8859291 60.18584,24.13082 61.1356764,24.13082" id="Fill-725" fill="#FF6C5E"></path>
                        </g>
                    </g>
                </g>
            </g>
        </g>
    </g>
</svg>